<?xml version="1.0" encoding="utf-8"?>
<!-- Generator: Adobe Illustrator 24.1.0, SVG Export Plug-In . SVG Version: 6.00 Build 0)  -->
<svg version="1.1" id="Layer_1" xmlns="http://www.w3.org/2000/svg" xmlns:xlink="http://www.w3.org/1999/xlink" x="0px" y="0px"
	 viewBox="0 0 826 74" style="enable-background:new 0 0 826 74;" xml:space="preserve">
<style type="text/css">
	.st0{fill-rule:evenodd;clip-rule:evenodd;fill:#761B2B;}
	.st1{fill-rule:evenodd;clip-rule:evenodd;fill:#8B2130;}
	.st2{fill-rule:evenodd;clip-rule:evenodd;fill:#CB4F6F;}
	.st3{fill-rule:evenodd;clip-rule:evenodd;fill:#B11E33;}
	.st4{fill-rule:evenodd;clip-rule:evenodd;fill:#96764D;}
	.st5{fill:none;}
</style>
<g id="Symbols">
	<g id="GTW_x2F_Navigation_x2F_Header_x2F_Desktop_x2F_PreGames" transform="translate(0.000000, 1.000000)">
		<g id="Brand" transform="translate(-1.000000, -1.000000)">
			<g id="Group-22" transform="translate(1.000000, 0.000000)">
				<polygon id="Fill-2" class="st0" points="0.2,74 445.2,74 445.2,0 0.2,0 				"/>
				<path id="Fill-11" class="st1" d="M273.6,74h184c22.1-21,40.3-46.1,53.3-74H273.6V74z"/>
				<path id="Fill-6" class="st2" d="M266.3,74h32.5V0H213C226,27.9,244.2,53,266.3,74"/>
				<polygon id="Fill-9" class="st3" points="290.8,74 365.8,74 365.8,0 290.8,0 				"/>
			</g>
			<g id="Tokyo2020" transform="translate(616.000000, 23.000000)">
				<polygon id="Fill-1" class="st4" points="-100,1.2 -100,5.6 -93.2,5.6 -93.2,30.2 -88.6,30.2 -88.6,5.6 -81.8,5.6 -81.8,1.2 
									"/>
				<polygon id="Fill-2_1_" class="st4" points="-36.1,1.2 -44.9,14.3 -45,14.3 -45,1.2 -49.7,1.2 -49.7,30.2 -45,30.2 -45,21.4 
					-42.4,17.7 -35.5,30.2 -29.9,30.2 -39.2,13.8 -30.8,1.2 				"/>
				<polygon id="Fill-3" class="st4" points="-11.3,1.2 -16.5,12.6 -16.6,12.6 -21.7,1.2 -26.5,1.2 -18.9,17.8 -18.9,30.2 
					-14.2,30.2 -14.2,17.7 -6.6,1.2 				"/>
				<g id="Group-20" transform="translate(23.000000, 0.447800)">
					<path id="Fill-4" class="st4" d="M20.4,29.8H4.1v-4.2l0.1-0.1l10.8-13.9c0.5-0.6,0.9-1.4,0.9-2.7c0-2.3-1.8-3.8-3.6-3.8
						c-1,0-1.9,0.3-2.6,1C9,6.8,8.6,7.8,8.6,9.4l0,0.2H4.1l0-0.3c0-2.4,0.9-4.8,2.4-6.4C7.9,1.4,9.8,0.6,12,0.6c2.5,0,4.5,0.8,6,2.4
						c1.5,1.6,2.3,3.6,2.3,6c0,2-0.6,3.7-2,5.5l-8.2,10.6l0.1,0.1h10.2V29.8"/>
					<path id="Fill-6_1_" class="st4" d="M65.5,29.8H49.2v-4.2l0.1-0.1L60,11.6c0.5-0.6,0.9-1.4,0.9-2.7c0-2.3-1.8-3.8-3.6-3.8
						c-1.1,0-1.9,0.3-2.6,1c-0.7,0.7-1,1.7-1.1,3.2l0,0.2h-4.5V9.4c0-2.4,0.9-4.8,2.4-6.4c1.5-1.6,3.4-2.4,5.6-2.4
						c2.5,0,4.5,0.8,6,2.4c1.5,1.6,2.3,3.6,2.3,6c0,2-0.6,3.7-2,5.5l-8.2,10.6l0.1,0.1h10.2V29.8"/>
					<g id="Group-10" transform="translate(73.000000, 0.000000)">
						<polygon id="Clip-9" class="st5" points="-99.2,0.6 -80.9,0.6 -80.9,30 -99.2,30 						"/>
						<path id="Fill-8" class="st4" d="M-90,30c-5.3,0-9.1-3.7-9.1-8.8V9.3c0-5.2,3.7-8.7,9.1-8.7c5.4,0,9.1,3.6,9.1,8.7v11.9
							C-80.9,26.3-84.8,30-90,30 M-90,5.1c-2.7,0-4.7,2-4.7,4.8v10.5c0,3,1.9,5,4.7,5c2.8,0,4.7-2,4.7-5V9.9
							C-85.4,7.1-87.3,5.1-90,5.1"/>
					</g>
					<g id="Group-13">
						<polygon id="Clip-12" class="st5" points="-99.3,0.6 -81.1,0.6 -81.1,30 -99.3,30 						"/>
						<path id="Fill-11_1_" class="st4" d="M-90.2,30c-5.3,0-9.1-3.7-9.1-8.8V9.3c0-5.2,3.7-8.7,9.1-8.7s9.1,3.6,9.1,8.7v11.9
							C-81.1,26.3-84.9,30-90.2,30 M-90.2,5.1c-2.7,0-4.7,2-4.7,4.8v10.5c0,3,1.9,5,4.7,5c2.8,0,4.7-2,4.7-5V9.9
							C-85.6,7.1-87.5,5.1-90.2,5.1"/>
					</g>
					<g id="Group-16" transform="translate(127.000000, 0.000000)">
						<polygon id="Clip-15" class="st5" points="-100,0.6 -83.8,0.6 -83.8,30 -100,30 						"/>
						<path id="Fill-14" class="st4" d="M-88.3,21.2c0,2.9-1.2,4.2-3.6,4.2c-2.4,0-3.6-1.4-3.6-4.2V9.3c0-1.9,0.6-4.2,3.6-4.2
							c3,0,3.6,2.3,3.6,4.2V21.2z M-85.8,3.2c-1.4-1.6-3.5-2.6-6.1-2.6c-4.8,0-8.1,3.4-8.1,8.4v12.6c0,6.7,5.1,8.4,8.1,8.4
							c1.8,0,4.4-0.6,6.1-2.6c1.2-1.3,2-3.2,2-5.8V9C-83.8,6.6-84.5,4.6-85.8,3.2L-85.8,3.2z"/>
					</g>
					<g id="Group-19" transform="translate(171.000000, 0.000000)">
						<polygon id="Clip-18" class="st5" points="-99.8,0.6 -83.7,0.6 -83.7,30 -99.8,30 						"/>
						<path id="Fill-17" class="st4" d="M-91.8,30c-3,0-8.1-1.8-8.1-8.4V9c0-5,3.2-8.4,8.1-8.4c4.8,0,8.1,3.4,8.1,8.4v12.6
							C-83.7,28.2-88.8,30-91.8,30 M-91.8,5.1c-3,0-3.6,2.3-3.6,4.2v11.9c0,2.9,1.2,4.2,3.6,4.2c2.4,0,3.6-1.4,3.6-4.2V9.3
							C-88.1,7.4-88.8,5.1-91.8,5.1"/>
					</g>
				</g>
			</g>
		</g>
	</g>
</g>
</svg>
