<?xml version="1.0" encoding="utf-8"?>
<!-- Generator: Adobe Illustrator 24.1.2, SVG Export Plug-In . SVG Version: 6.00 Build 0)  -->
<svg version="1.1" id="Layer_1" xmlns="http://www.w3.org/2000/svg" xmlns:xlink="http://www.w3.org/1999/xlink" x="0px" y="0px"
	 viewBox="0 0 120 120" style="enable-background:new 0 0 120 120;" xml:space="preserve">
<style type="text/css">
	.st0{fill:#8b2030;}
	.st1{fill:#FFFFFF;}
</style>
<circle class="st0" cx="60" cy="60" r="60"/>
<path class="st1" d="M42.7,58.5c-3.1-5.6-6.7-12-7.8-13.9c-0.7-2.2-8.7-19-9.7-21c-0.4-0.9-1.4-1.4-2.5-1.2
	c-1.1,0.3-1.8,1.4-1.5,2.6c0.6,2.3,14.3,41.8,14.5,41.5C37.4,63.2,39.7,60.3,42.7,58.5"/>
<path class="st1" d="M50.1,58.6c3.9,0,7.1-3.2,7.1-7.1s-3.2-7.1-7.1-7.1c-3.9,0-7.1,3.2-7.1,7.1S46.2,58.6,50.1,58.6"/>
<path class="st1" d="M50.7,62.6c-3.1-0.4-5.9,1.9-6.3,5c0,0.3,0,0.6,0,0.8c0,1.7,2,10.1,3.2,14.7c-6.9,0.9-17.2,3-23.4,4.4
	c1.5,1.6,3.6,2.5,6,2.5c2.1,0,4.1-0.8,5.6-2.2c1.5,1.3,3.4,2.2,5.6,2.2c2.1,0,4.1-0.8,5.6-2.2c1.3,1.2,3.1,2.1,4.9,2.1
	c2.1,0,4-1.2,4.2-3.2c0.6-4.6,0.5-17.3-0.6-20.5C54.7,64.4,53,62.9,50.7,62.6"/>
<path class="st1" d="M82.4,58.5c-3.1-5.6-6.7-12-7.8-13.9c-0.7-2.2-8.7-19-9.7-21c-0.4-0.9-1.4-1.4-2.5-1.2
	c-1.1,0.3-1.8,1.4-1.5,2.6c0.6,2.3,14.3,41.8,14.5,41.5C77,63.2,79.3,60.3,82.4,58.5"/>
<path class="st1" d="M89.8,58.6c3.9,0,7.1-3.2,7.1-7.1s-3.2-7.1-7.1-7.1c-3.9,0-7.1,3.2-7.1,7.1S85.8,58.6,89.8,58.6"/>
<path class="st1" d="M90.4,62.6c-3.1-0.4-5.9,1.9-6.3,5c0,0.3,0,0.6,0,0.8c0,1.7,2,10.1,3.2,14.7c-6.9,0.9-17.2,3-23.4,4.4
	c1.5,1.6,3.6,2.5,6,2.5c2.1,0,4.1-0.8,5.6-2.2c1.5,1.3,3.4,2.2,5.6,2.2c2.1,0,4.1-0.8,5.6-2.2c1.3,1.2,3.1,2.1,4.9,2.1
	c2.1,0,4-1.2,4.2-3.2c0.6-4.6,0.5-17.3-0.6-20.5C94.4,64.4,92.6,62.9,90.4,62.6"/>
</svg>
