<?xml version="1.0" encoding="utf-8"?>
<!-- Generator: Adobe Illustrator 24.1.2, SVG Export Plug-In . SVG Version: 6.00 Build 0)  -->
<svg version="1.1" id="Layer_1" xmlns="http://www.w3.org/2000/svg" xmlns:xlink="http://www.w3.org/1999/xlink" x="0px" y="0px"
	 viewBox="0 0 120 120" style="enable-background:new 0 0 120 120;" xml:space="preserve">
<style type="text/css">
	.st0{fill:#8b2030;}
	.st1{fill:#FFFFFF;}
</style>
<path class="st0" d="M120,60c0,33.1-26.9,60-60,60S0,93.1,0,60C0,26.9,26.9,0,60,0S120,26.9,120,60"/>
<path class="st1" d="M49.9,39.7c3.3-0.9,11.6-3.8,16.3-5.6c1.2,1.3,2.8,2.9,4.4,4.6c2.6-2.2,5.2-4.3,7.5-4.7c0.3-0.1,0.7-0.1,1-0.1
	c-3.7-2-10.3-5.5-10.9-5.8c-0.6-0.3-1.2-0.4-1.8-0.2c-0.2,0-0.6,0.2-0.6,0.2c-2.2,1-16.5,8.5-17,8.8c-0.6,0.3-1,1-0.8,1.7
	C48.2,39.3,49.1,39.9,49.9,39.7"/>
<path class="st1" d="M89.1,36.5c2.9,2,6.8,1.3,8.8-1.5c2-2.9,1.3-6.8-1.5-8.8c-2.9-2-6.8-1.3-8.8,1.5C85.5,30.5,86.2,34.4,89.1,36.5
	"/>
<path class="st1" d="M88.5,59.4c0.3-0.1,15.6-9.3,15.9-9.6c0.5-0.4,0.7-1,0.6-1.7c-0.2-1-1.2-1.6-2.1-1.4c-0.1,0-0.2,0.1-0.3,0.1
	c-0.4,0.1-8.6,3.6-13.4,5.6c-1.1-4.5-2.8-10.3-3.7-12.7c-0.1-0.2-0.2-0.4-0.3-0.6c0-0.1-0.1-0.2-0.1-0.2c-1.1-2-3.5-3.2-5.8-2.7
	c-2.9,0.6-4.8,3.5-4.2,6.4c0.1,0.3,0.2,0.6,0.3,0.9c0.7,2,7.8,13.4,9.1,15c0.7,1,1.9,1.5,3.1,1.2C87.9,59.7,88.2,59.5,88.5,59.4"/>
<path class="st1" d="M76.2,70.7c-1.2-2.3-9-14.4-11.5-17.9c-0.3-0.4-0.6-0.7-0.9-0.9c-1.2-1.1-2.9-1.6-4.6-1.4
	c-1.4,0.2-2.7,0.8-3.7,1.7c-1.3,1.1-38.9,35-39.2,35.3c-0.5,0.4-0.8,1.1-0.7,1.8c0.1,1.2,1.2,2.1,2.4,2c0.4,0,0.7-0.2,1-0.3
	c0.2-0.1,11.7-7.7,22.9-15.1c5.2,0.1,30.1,0.4,31.1,0.3c0.3,0,0.6-0.1,0.9-0.1c2-0.5,3.2-2.6,2.7-4.6C76.4,71.1,76.3,70.9,76.2,70.7
	 M59.1,64.5c1.5,1.4,2.9,2.9,3.6,3.5c0.4,0.4,0.9,0.8,1.3,1.2c-4.4,0.4-9.4,0.8-13.8,1.2C53.6,68.1,56.7,66,59.1,64.5"/>
</svg>
