<?xml version="1.0" encoding="utf-8"?>
<!-- Generator: Adobe Illustrator 24.1.2, SVG Export Plug-In . SVG Version: 6.00 Build 0)  -->
<svg version="1.1" id="Layer_1" xmlns="http://www.w3.org/2000/svg" xmlns:xlink="http://www.w3.org/1999/xlink" x="0px" y="0px"
	 viewBox="0 0 120 120" style="enable-background:new 0 0 120 120;" xml:space="preserve">
<style type="text/css">
	.st0{fill:#8b2030;}
	.st1{fill:#FFFFFF;}
</style>
<path class="st0" d="M120,60c0,33.1-26.9,60-60,60S0,93.1,0,60C0,26.9,26.9,0,60,0S120,26.9,120,60"/>
<path class="st1" d="M65.9,64.7c-0.9-1.4-2.5-2.3-4.2-2.3c-2.6,0-4.8,2-5.1,4.6c0,0.2,0,0.3,0,0.5c0,1.3,1.4,20.1,1.5,20.9
	c0,0.4,0.1,0.7,0.3,1.1c0.4,0.9,1.1,1.5,1.9,1.8c3.5,1.4,21.3,8,23.8,8.8c0.1,0,0.3,0.1,0.3,0.1c0.4,0.1,0.8,0,1.2-0.1
	c1-0.4,1.4-1.6,0.9-2.5c-0.2-0.3-0.4-0.6-0.7-0.8c-0.4-0.3-14.8-7.9-20.6-10.9c0.1-1.9,0.2-4.6,0.3-7.3c2.1,3.1,3.9,5.7,4.1,5.9
	c0,0,0.1,0.1,0.1,0.1c0.6,0.6,1.3,0.9,2.1,1c1.9,0.2,20.3,0.8,21.2,0.7c0.4,0,0.8-0.2,1.1-0.4c0.7-0.6,0.7-1.7,0.1-2.4
	c-0.2-0.2-0.5-0.4-0.8-0.5c-0.4-0.1-14.2-2.6-19.3-3.4C72,75.4,66.6,65.7,65.9,64.7"/>
<path class="st1" d="M78.5,42.4c1.3-2.4,5.1-13,5.3-14.2c0-0.1,0-0.2,0-0.3c0-0.7-0.6-1.3-1.3-1.4c0-3.2-2.6-5.8-5.9-5.8
	c-3.2,0-5.9,2.6-5.9,5.9s2.6,5.9,5.9,5.9c0.6,0,1.2-0.1,1.7-0.2c-0.1,0.2-0.3,0.5-0.4,0.7c-0.7,1.3-2.4,4.4-3.3,6.3
	c-1.4,0.3-8,2-9.5,2.4c0.7,1.5,1.4,4.2,0.9,7.7c3.4-1.5,10.3-5.2,11.6-6C78,43,78.3,42.7,78.5,42.4"/>
<path class="st1" d="M59.9,40.5c3,0,5.4-2.4,5.4-5.4c0-3-2.4-5.4-5.4-5.4c-3,0-5.4,2.4-5.4,5.4C54.5,38.1,56.9,40.5,59.9,40.5"/>
<path class="st1" d="M35.9,70.7c1.8-0.7,14.6-7,15.7-7.7c0.3-0.2,0.6-0.4,0.8-0.7c0.9-1,7.7-11.7,8.1-12.9c0.2-0.5,0.3-1,0.3-1.6
	c0-2.4-1.9-4.3-4.3-4.3c-1.6,0-3.1,0.9-3.8,2.3c-0.6,0.9-3.7,9.6-4.8,13c-3.6,2.1-13.2,8.2-13.9,9.1c-0.3,0.3-0.5,0.7-0.5,1.2
	c0,0.9,0.8,1.7,1.7,1.7C35.5,70.8,35.7,70.8,35.9,70.7"/>
<path class="st1" d="M37.5,25.9l-3.7,11.4c-0.1,0.4,0.1,0.9,0.5,1c0.1,0,0.2,0,0.2,0c0.3,0,0.6-0.2,0.7-0.5c0,0,4.6-12.5,4.6-14.6
	c0-3.1-6.8-3.9-10.7-3.9c-4,0-10.7,0.8-10.7,3.9c0,2,4.6,14.6,4.6,14.6c0.1,0.3,0.4,0.5,0.7,0.5c0.1,0,0.2,0,0.2,0
	c0.4-0.1,0.6-0.6,0.5-1L21,25.9c2.3,1,5.8,1.3,8.3,1.3C31.7,27.2,35.2,26.9,37.5,25.9 M29.3,25.7c-4.8,0-8.8-1-8.8-2.4
	c0-1.4,4-2.4,8.8-2.4c4.8,0,8.8,1,8.8,2.4C38.1,24.7,34.1,25.7,29.3,25.7"/>
<polygon class="st1" points="81.2,68.7 86.9,68.7 91.6,64.5 88.6,59.9 83.9,64.1 82.3,64.1 "/>
<polygon class="st1" points="103.5,53.7 105.4,53.7 106.4,49.2 100.6,49.2 95.8,53.4 98.8,58 "/>
<polygon class="st1" points="91.5,49.2 85.6,49.2 84.5,53.7 86.3,53.7 96,68.7 101.9,68.7 102.9,64.1 101.1,64.1 "/>
<polygon class="st1" points="74.3,52 73.2,56.4 75.2,58.8 72.2,61.2 71.1,65.8 73.5,68.7 79.8,68.7 80.9,64.2 78.5,64.2 79.2,61.3 
	82.2,61.3 83.4,56.4 80.3,56.4 81,53.8 83,53.8 84.1,49.2 78,49.2 "/>
<polygon class="st1" points="116.6,52 114.2,49.2 107.9,49.2 106.8,53.7 109.2,53.7 108.5,56.3 105.5,56.3 104.4,61.2 107.4,61.2 
	106.7,64.1 104.4,64.1 103.3,68.7 109.7,68.7 113.4,65.9 114.5,61.2 112.6,58.8 115.6,56.4 "/>
</svg>
